<mxfile host="app.diagrams.net" modified="2024-03-15T19:18:10.053Z" agent="Mozilla/5.0 (Windows NT 10.0; Win64; x64) AppleWebKit/537.36 (KHTML, like Gecko) Chrome/122.0.0.0 Safari/537.36" etag="LrxVjrH5dMofiE9Ys5ed" version="24.0.7" type="github">
  <diagram name="Page-1" id="FLubwS-i9KN_LvjOInrq">
    <mxGraphModel dx="1050" dy="565" grid="1" gridSize="10" guides="1" tooltips="1" connect="1" arrows="1" fold="1" page="1" pageScale="1" pageWidth="850" pageHeight="1100" math="0" shadow="0">
      <root>
        <mxCell id="0" />
        <mxCell id="1" parent="0" />
        <mxCell id="WA5v6Kno6-36pFXfI1MC-1" value="Amazon API Gateway" style="sketch=0;outlineConnect=0;fontColor=#232F3E;gradientColor=none;strokeColor=#ffffff;fillColor=#232F3E;dashed=0;verticalLabelPosition=middle;verticalAlign=bottom;align=center;html=1;whiteSpace=wrap;fontSize=10;fontStyle=1;spacing=3;shape=mxgraph.aws4.productIcon;prIcon=mxgraph.aws4.api_gateway;" vertex="1" parent="1">
          <mxGeometry x="120" y="160" width="70" height="110" as="geometry" />
        </mxCell>
        <mxCell id="WA5v6Kno6-36pFXfI1MC-2" value="" style="sketch=0;points=[[0,0,0],[0.25,0,0],[0.5,0,0],[0.75,0,0],[1,0,0],[0,1,0],[0.25,1,0],[0.5,1,0],[0.75,1,0],[1,1,0],[0,0.25,0],[0,0.5,0],[0,0.75,0],[1,0.25,0],[1,0.5,0],[1,0.75,0]];outlineConnect=0;fontColor=#232F3E;fillColor=#E7157B;strokeColor=#ffffff;dashed=0;verticalLabelPosition=bottom;verticalAlign=top;align=center;html=1;fontSize=12;fontStyle=0;aspect=fixed;shape=mxgraph.aws4.resourceIcon;resIcon=mxgraph.aws4.sns;" vertex="1" parent="1">
          <mxGeometry x="300" y="160" width="78" height="78" as="geometry" />
        </mxCell>
        <mxCell id="WA5v6Kno6-36pFXfI1MC-3" value="Amazon SQS" style="sketch=0;outlineConnect=0;fontColor=#232F3E;gradientColor=none;strokeColor=#ffffff;fillColor=#232F3E;dashed=0;verticalLabelPosition=middle;verticalAlign=bottom;align=center;html=1;whiteSpace=wrap;fontSize=10;fontStyle=1;spacing=3;shape=mxgraph.aws4.productIcon;prIcon=mxgraph.aws4.sqs;" vertex="1" parent="1">
          <mxGeometry x="480" y="70" width="60" height="40" as="geometry" />
        </mxCell>
        <mxCell id="WA5v6Kno6-36pFXfI1MC-4" value="Amazon SQS" style="sketch=0;outlineConnect=0;fontColor=#232F3E;gradientColor=none;strokeColor=#ffffff;fillColor=#232F3E;dashed=0;verticalLabelPosition=middle;verticalAlign=bottom;align=center;html=1;whiteSpace=wrap;fontSize=10;fontStyle=1;spacing=3;shape=mxgraph.aws4.productIcon;prIcon=mxgraph.aws4.sqs;" vertex="1" parent="1">
          <mxGeometry x="480" y="160" width="60" height="30" as="geometry" />
        </mxCell>
        <mxCell id="WA5v6Kno6-36pFXfI1MC-5" value="Amazon SQS" style="sketch=0;outlineConnect=0;fontColor=#232F3E;gradientColor=none;strokeColor=#ffffff;fillColor=#232F3E;dashed=0;verticalLabelPosition=middle;verticalAlign=bottom;align=center;html=1;whiteSpace=wrap;fontSize=10;fontStyle=1;spacing=3;shape=mxgraph.aws4.productIcon;prIcon=mxgraph.aws4.sqs;" vertex="1" parent="1">
          <mxGeometry x="480" y="250" width="60" height="40" as="geometry" />
        </mxCell>
        <mxCell id="WA5v6Kno6-36pFXfI1MC-6" value="" style="outlineConnect=0;dashed=0;verticalLabelPosition=bottom;verticalAlign=top;align=center;html=1;shape=mxgraph.aws3.lambda_function;fillColor=#F58534;gradientColor=none;" vertex="1" parent="1">
          <mxGeometry x="618" y="38" width="69" height="72" as="geometry" />
        </mxCell>
        <mxCell id="WA5v6Kno6-36pFXfI1MC-8" value="Amazon EC2" style="sketch=0;outlineConnect=0;fontColor=#232F3E;gradientColor=none;strokeColor=#ffffff;fillColor=#232F3E;dashed=0;verticalLabelPosition=middle;verticalAlign=bottom;align=center;html=1;whiteSpace=wrap;fontSize=10;fontStyle=1;spacing=3;shape=mxgraph.aws4.productIcon;prIcon=mxgraph.aws4.ec2;" vertex="1" parent="1">
          <mxGeometry x="630" y="170" width="50" height="30" as="geometry" />
        </mxCell>
        <mxCell id="WA5v6Kno6-36pFXfI1MC-9" value="" style="outlineConnect=0;dashed=0;verticalLabelPosition=bottom;verticalAlign=top;align=center;html=1;shape=mxgraph.aws3.lambda_function;fillColor=#5294CF;gradientColor=none;" vertex="1" parent="1">
          <mxGeometry x="630" y="260" width="60" height="63" as="geometry" />
        </mxCell>
        <mxCell id="WA5v6Kno6-36pFXfI1MC-10" value="Auto Scaling group" style="points=[[0,0],[0.25,0],[0.5,0],[0.75,0],[1,0],[1,0.25],[1,0.5],[1,0.75],[1,1],[0.75,1],[0.5,1],[0.25,1],[0,1],[0,0.75],[0,0.5],[0,0.25]];outlineConnect=0;gradientColor=none;html=1;whiteSpace=wrap;fontSize=12;fontStyle=0;container=1;pointerEvents=0;collapsible=0;recursiveResize=0;shape=mxgraph.aws4.groupCenter;grIcon=mxgraph.aws4.group_auto_scaling_group;grStroke=1;strokeColor=#D86613;fillColor=none;verticalAlign=top;align=center;fontColor=#D86613;dashed=1;spacingTop=25;" vertex="1" parent="1">
          <mxGeometry x="595" y="140" width="115" height="100" as="geometry" />
        </mxCell>
        <mxCell id="WA5v6Kno6-36pFXfI1MC-30" value="Master Card" style="rounded=0;whiteSpace=wrap;html=1;" vertex="1" parent="WA5v6Kno6-36pFXfI1MC-10">
          <mxGeometry x="7.5" y="80" width="105" height="20" as="geometry" />
        </mxCell>
        <mxCell id="WA5v6Kno6-36pFXfI1MC-12" value="" style="endArrow=classic;html=1;rounded=0;exitX=1;exitY=0.5;exitDx=0;exitDy=0;exitPerimeter=0;" edge="1" parent="1" source="WA5v6Kno6-36pFXfI1MC-2">
          <mxGeometry width="50" height="50" relative="1" as="geometry">
            <mxPoint x="408.78" y="172.168" as="sourcePoint" />
            <mxPoint x="480" y="100" as="targetPoint" />
            <Array as="points" />
          </mxGeometry>
        </mxCell>
        <mxCell id="WA5v6Kno6-36pFXfI1MC-13" value="" style="endArrow=classic;html=1;rounded=0;" edge="1" parent="1">
          <mxGeometry width="50" height="50" relative="1" as="geometry">
            <mxPoint x="378" y="223.39" as="sourcePoint" />
            <mxPoint x="480" y="269.9971428571429" as="targetPoint" />
            <Array as="points">
              <mxPoint x="398" y="233.39" />
            </Array>
          </mxGeometry>
        </mxCell>
        <mxCell id="WA5v6Kno6-36pFXfI1MC-14" value="" style="endArrow=classic;html=1;rounded=0;" edge="1" parent="1">
          <mxGeometry width="50" height="50" relative="1" as="geometry">
            <mxPoint x="380" y="200" as="sourcePoint" />
            <mxPoint x="480" y="200" as="targetPoint" />
            <Array as="points">
              <mxPoint x="420" y="200" />
            </Array>
          </mxGeometry>
        </mxCell>
        <mxCell id="WA5v6Kno6-36pFXfI1MC-15" value="" style="endArrow=classic;html=1;rounded=0;entryX=0;entryY=0.5;entryDx=0;entryDy=0;entryPerimeter=0;" edge="1" parent="1" target="WA5v6Kno6-36pFXfI1MC-2">
          <mxGeometry width="50" height="50" relative="1" as="geometry">
            <mxPoint x="190" y="198.5" as="sourcePoint" />
            <mxPoint x="290" y="198.5" as="targetPoint" />
            <Array as="points">
              <mxPoint x="230" y="198.5" />
            </Array>
          </mxGeometry>
        </mxCell>
        <mxCell id="WA5v6Kno6-36pFXfI1MC-17" value="" style="endArrow=classic;html=1;rounded=0;entryX=0;entryY=0.5;entryDx=0;entryDy=0;entryPerimeter=0;" edge="1" parent="1" target="WA5v6Kno6-36pFXfI1MC-6">
          <mxGeometry width="50" height="50" relative="1" as="geometry">
            <mxPoint x="540" y="110" as="sourcePoint" />
            <mxPoint x="610" y="96" as="targetPoint" />
            <Array as="points">
              <mxPoint x="540" y="110" />
            </Array>
          </mxGeometry>
        </mxCell>
        <mxCell id="WA5v6Kno6-36pFXfI1MC-19" value="" style="endArrow=classic;html=1;rounded=0;entryX=0;entryY=0.5;entryDx=0;entryDy=0;entryPerimeter=0;" edge="1" parent="1">
          <mxGeometry width="50" height="50" relative="1" as="geometry">
            <mxPoint x="540" y="190.5" as="sourcePoint" />
            <mxPoint x="610" y="190.5" as="targetPoint" />
            <Array as="points">
              <mxPoint x="560" y="190" />
            </Array>
          </mxGeometry>
        </mxCell>
        <mxCell id="WA5v6Kno6-36pFXfI1MC-20" value="" style="endArrow=classic;html=1;rounded=0;entryX=0;entryY=0.5;entryDx=0;entryDy=0;entryPerimeter=0;" edge="1" parent="1">
          <mxGeometry width="50" height="50" relative="1" as="geometry">
            <mxPoint x="550" y="280.5" as="sourcePoint" />
            <mxPoint x="620" y="280.5" as="targetPoint" />
            <Array as="points">
              <mxPoint x="570" y="280" />
            </Array>
          </mxGeometry>
        </mxCell>
        <mxCell id="WA5v6Kno6-36pFXfI1MC-22" value="" style="strokeWidth=2;html=1;shape=mxgraph.flowchart.database;whiteSpace=wrap;" vertex="1" parent="1">
          <mxGeometry x="750" y="160" width="60" height="60" as="geometry" />
        </mxCell>
        <mxCell id="WA5v6Kno6-36pFXfI1MC-23" value="" style="sketch=0;points=[[0,0,0],[0.25,0,0],[0.5,0,0],[0.75,0,0],[1,0,0],[0,1,0],[0.25,1,0],[0.5,1,0],[0.75,1,0],[1,1,0],[0,0.25,0],[0,0.5,0],[0,0.75,0],[1,0.25,0],[1,0.5,0],[1,0.75,0]];outlineConnect=0;fontColor=#232F3E;fillColor=#C925D1;strokeColor=#ffffff;dashed=0;verticalLabelPosition=bottom;verticalAlign=top;align=center;html=1;fontSize=12;fontStyle=0;aspect=fixed;shape=mxgraph.aws4.resourceIcon;resIcon=mxgraph.aws4.dynamodb;" vertex="1" parent="1">
          <mxGeometry x="742" y="70" width="68" height="68" as="geometry" />
        </mxCell>
        <mxCell id="WA5v6Kno6-36pFXfI1MC-24" value="Amazon DynamoDB" style="sketch=0;outlineConnect=0;fontColor=#232F3E;gradientColor=none;strokeColor=#ffffff;fillColor=#232F3E;dashed=0;verticalLabelPosition=middle;verticalAlign=bottom;align=center;html=1;whiteSpace=wrap;fontSize=10;fontStyle=1;spacing=3;shape=mxgraph.aws4.productIcon;prIcon=mxgraph.aws4.dynamodb;" vertex="1" parent="1">
          <mxGeometry x="740" y="250" width="70" height="110" as="geometry" />
        </mxCell>
        <mxCell id="WA5v6Kno6-36pFXfI1MC-25" value="" style="endArrow=classic;html=1;rounded=0;" edge="1" parent="1">
          <mxGeometry width="50" height="50" relative="1" as="geometry">
            <mxPoint x="690" y="289.5" as="sourcePoint" />
            <mxPoint x="740" y="290" as="targetPoint" />
            <Array as="points">
              <mxPoint x="710" y="289" />
            </Array>
          </mxGeometry>
        </mxCell>
        <mxCell id="WA5v6Kno6-36pFXfI1MC-26" value="" style="endArrow=classic;html=1;rounded=0;" edge="1" parent="1">
          <mxGeometry width="50" height="50" relative="1" as="geometry">
            <mxPoint x="710" y="190.5" as="sourcePoint" />
            <mxPoint x="740" y="190" as="targetPoint" />
            <Array as="points">
              <mxPoint x="730" y="190" />
            </Array>
          </mxGeometry>
        </mxCell>
        <mxCell id="WA5v6Kno6-36pFXfI1MC-27" value="" style="endArrow=classic;html=1;rounded=0;" edge="1" parent="1">
          <mxGeometry width="50" height="50" relative="1" as="geometry">
            <mxPoint x="692" y="96" as="sourcePoint" />
            <mxPoint x="742" y="96.5" as="targetPoint" />
            <Array as="points">
              <mxPoint x="712" y="95.5" />
            </Array>
          </mxGeometry>
        </mxCell>
        <mxCell id="WA5v6Kno6-36pFXfI1MC-28" value="Visa" style="rounded=0;whiteSpace=wrap;html=1;" vertex="1" parent="1">
          <mxGeometry x="610" y="323" width="100" height="20" as="geometry" />
        </mxCell>
        <mxCell id="WA5v6Kno6-36pFXfI1MC-29" value="AMEX" style="rounded=0;whiteSpace=wrap;html=1;" vertex="1" parent="1">
          <mxGeometry x="605" y="110" width="100" height="20" as="geometry" />
        </mxCell>
        <mxCell id="WA5v6Kno6-36pFXfI1MC-32" value="Client" style="sketch=0;outlineConnect=0;fontColor=#232F3E;gradientColor=none;strokeColor=#232F3E;fillColor=#ffffff;dashed=0;verticalLabelPosition=bottom;verticalAlign=top;align=center;html=1;fontSize=12;fontStyle=0;aspect=fixed;shape=mxgraph.aws4.resourceIcon;resIcon=mxgraph.aws4.client;" vertex="1" parent="1">
          <mxGeometry x="10" y="169" width="60" height="60" as="geometry" />
        </mxCell>
        <mxCell id="WA5v6Kno6-36pFXfI1MC-33" value="" style="endArrow=classic;html=1;rounded=0;" edge="1" parent="1">
          <mxGeometry width="50" height="50" relative="1" as="geometry">
            <mxPoint x="60" y="198.5" as="sourcePoint" />
            <mxPoint x="120" y="199" as="targetPoint" />
            <Array as="points">
              <mxPoint x="100" y="198.5" />
            </Array>
          </mxGeometry>
        </mxCell>
        <mxCell id="WA5v6Kno6-36pFXfI1MC-34" value="AMEX" style="rounded=0;whiteSpace=wrap;html=1;" vertex="1" parent="1">
          <mxGeometry x="460" y="130" width="100" height="20" as="geometry" />
        </mxCell>
        <mxCell id="WA5v6Kno6-36pFXfI1MC-35" value="Master Card" style="rounded=0;whiteSpace=wrap;html=1;" vertex="1" parent="1">
          <mxGeometry x="460" y="218" width="105" height="20" as="geometry" />
        </mxCell>
        <mxCell id="WA5v6Kno6-36pFXfI1MC-36" value="Visa" style="rounded=0;whiteSpace=wrap;html=1;" vertex="1" parent="1">
          <mxGeometry x="465" y="310" width="100" height="20" as="geometry" />
        </mxCell>
        <mxCell id="WA5v6Kno6-36pFXfI1MC-37" value="SNS filtering base on metadata of the inputs&amp;nbsp;" style="rounded=0;whiteSpace=wrap;html=1;" vertex="1" parent="1">
          <mxGeometry x="279" y="240" width="120" height="48.5" as="geometry" />
        </mxCell>
      </root>
    </mxGraphModel>
  </diagram>
</mxfile>
